#!OML:ASF I:\Random Stuff\random\construction\7_22_03\Session 2\subj1.ASF
:FULLY-SPECIFIED
:DEGREES
1186
root -16.6311 17.4652 -2.51378 4.6003 11.5686 357.481
lowerback 2.29708 4.2486 2.47021
upperback -2.91648 5.78645 -0.0741096
thorax -4.04147 2.80563 -1.77312
lowerneck -23.1843 8.51188 8.63829
upperneck 26.4959 10.0679 -3.30754
head 13.4242 4.86197 -0.842645
rclavicle 6.04771e-014 -1.98785e-016
rhumerus -38.5102 -29.1952 -63.6512
rradius 14.4121
rwrist 30.4479
rhand -14.9141 20.1973
rfingers 7.12502
rthumb 11.2476 -9.48112
lclavicle 6.04771e-014 -1.98785e-016
lhumerus -35.1438 -10.523 91.5411
lradius 23.0374
lwrist 21.1158
lhand -23.4671 55.4069
lfingers 7.12502
lthumb 2.99205 -634.634
rfemur -0.942798 32.1641 24.7652
rtibia 14.9252
rfoot -99.9346 -36.6896
rtoes 62.2046
lfemur -18.7616 1.54378 -17.0517
ltibia 30.9682
lfoot -22.2872 22.935
ltoes -0.931713
1187
root -16.4709 17.5155 -2.46665 4.57115 12.5582 357.085
lowerback 2.36559 4.17346 2.76086
upperback -2.969 5.70163 -0.0934088
thorax -4.10925 2.75243 -1.95652
lowerneck -23.3727 8.36292 8.46918
upperneck 26.5445 9.93884 -3.41525
head 13.469 4.77017 -0.876711
rclavicle -3.55196e-014 5.1684e-015
rhumerus -38.6409 -27.729 -64.6802
rradius 15.6454
rwrist 25.3275
rhand -14.8068 19.9486
rfingers 7.12502
rthumb 11.3511 -9.72425
lclavicle -3.55196e-014 5.1684e-015
lhumerus -35.3228 -10.2039 91.1435
lradius 22.9879
lwrist 20.5487
lhand -22.8776 55.7123
lfingers 7.12502
lthumb 3.56128 -634.338
rfemur -3.06882 14.0461 22.5945
rtibia 16.0756
rfoot -68.3417 -48.5939
rtoes 54.8226
lfemur -18.3995 1.02574 -17.1987
ltibia 30.406
lfoot -22.2847 22.6085
ltoes -0.932449
1188
root -16.32 17.5414 -2.42399 4.55691 13.537 356.992
lowerback 2.46129 4.06482 2.61081
upperback -2.95614 5.55178 -0.11869
thorax -4.16866 2.68094 -1.9001
lowerneck -23.5986 8.22489 8.23213
upperneck 26.5788 9.84054 -3.50086
head 13.5119 4.6868 -0.884551
rclavicle -4.93002e-014 -1.59028e-015
rhumerus -38.5955 -26.4907 -65.5162
rradius 16.7415
rwrist 21.2026
rhand -14.4154 19.8792
rfingers 7.12502
rthumb 11.7285 -9.77243
lclavicle -4.93002e-014 -1.59028e-015
lhumerus -35.3924 -9.88547 90.8147
lradius 22.8378
lwrist 20.0345
lhand -22.4812 55.9095
lfingers 7.12502
lthumb 3.94407 -634.147
rfemur -4.61896 3.00096 21.2426
rtibia 18.0404
rfoot -39.3697 -49.2357
rtoes 43.4153
lfemur -17.8293 0.543581 -17.6613
ltibia 29.4511
lfoot -22.0905 22.3876
ltoes -0.922963
1189
root -16.1887 17.5726 -2.38188 4.60282 14.5958 357.247
lowerback 2.63168 3.90831 1.86817
upperback -2.92594 5.31154 -0.141853
thorax -4.30839 2.58191 -1.51558
lowerneck -23.7368 8.10716 7.87744
upperneck 26.4961 9.78344 -3.47808
head 13.4767 4.62691 -0.827863
rclavicle -4.37668e-014 -1.33186e-014
rhumerus -38.3594 -25.1257 -66.4369
rradius 17.5525
rwrist 17.2562
rhand -14.7031 20.5367
rfingers 7.12502
rthumb 11.4511 -9.13055
lclavicle -4.37668e-014 -1.33186e-014
lhumerus -35.4209 -9.60152 90.5749
lradius 22.6471
lwrist 19.7006
lhand -22.4663 56.1311
lfingers 7.12502
lthumb 3.95844 -633.926
rfemur -6.01985 -2.47681 19.9898
rtibia 20.5652
rfoot -24.9202 -42.0797
rtoes 32.9576
lfemur -17.1322 0.269217 -18.4365
ltibia 28.2723
lfoot -21.6844 21.9792
ltoes -1.83451
1190
root -16.0775 17.5758 -2.34235 4.70376 15.8363 357.807
lowerback 2.88944 3.69863 0.698499
upperback -2.86458 4.97426 -0.222498
thorax -4.49337 2.44768 -0.951288
lowerneck -23.8631 8.00438 7.59669
upperneck 26.3429 9.73043 -3.50068
head 13.4182 4.57043 -0.800807
rclavicle -2.21552e-014 -1.21259e-014
rhumerus -38.059 -23.4265 -67.6839
rradius 18.6697
rwrist 13.379
rhand -15.1469 20.7858
rfingers 7.12502
rthumb 11.0231 -8.90476
lclavicle -2.21552e-014 -1.21259e-014
lhumerus -35.3122 -9.40116 90.3174
lradius 22.4875
lwrist 19.4101
lhand -22.4044 56.3649
lfingers 7.12502
lthumb 4.01827 -633.693
rfemur -7.6845 -5.08453 18.7695
rtibia 23.6547
rfoot -18.1857 -34.19
rtoes 20.8124
lfemur -16.4935 0.144135 -19.4637
ltibia 27.1621
lfoot -20.9971 21.2857
ltoes -3.38156
1191
root -15.9833 17.5742 -2.30267 4.80229 17.2795 358.58
lowerback 3.31382 3.41562 -0.752761
upperback -2.77611 4.51436 -0.331559
thorax -4.754 2.26229 -0.256885
lowerneck -23.949 7.91144 7.39684
upperneck 26.1826 9.68935 -3.60249
head 13.3599 4.51723 -0.816204
rclavicle -4.92178e-014 5.96354e-015
rhumerus -37.7651 -21.8147 -68.8912
rradius 20.0453
rwrist 10.8516
rhand -15.3396 20.1218
rfingers 7.12502
rthumb 10.8372 -9.57858
lclavicle -4.92178e-014 5.96354e-015
lhumerus -35.0591 -9.22646 90.0296
lradius 22.2903
lwrist 19.053
lhand -22.1624 56.3969
lfingers 7.12502
lthumb 4.25199 -633.666
rfemur -9.40114 -6.35303 17.5794
rtibia 26.8781
rfoot -15.816 -27.0912
rtoes 10.1022
lfemur -15.8454 0.234444 -20.6522
ltibia 26.1414
lfoot -20.1259 20.2276
ltoes -5.33064
1192
root -15.9044 17.568 -2.25936 4.8457 18.8648 359.328
lowerback 3.84089 3.11131 -2.21822
upperback -2.62482 4.00945 -0.432703
thorax -4.98988 2.05731 0.462729
lowerneck -24.0729 7.82587 7.20608
upperneck 25.9716 9.64235 -3.68736
head 13.2878 4.46421 -0.826795
rclavicle 3.67068e-014 1.55052e-014
rhumerus -37.3934 -20.9635 -69.7182
rradius 21.0702
rwrist 10.1231
rhand -15.8024 19.9432
rfingers 7.12502
rthumb 10.3908 -9.78006
lclavicle 3.67068e-014 1.55052e-014
lhumerus -34.7055 -9.38407 89.8469
lradius 22.0333
lwrist 18.7208
lhand -22.136 56.0695
lfingers 7.12502
lthumb 4.27741 -633.994
rfemur -10.9876 -7.20347 16.6292
rtibia 29.8271
rfoot -15.2354 -21.0199
rtoes 1.6803
lfemur -15.2869 0.313167 -21.7275
ltibia 25.4851
lfoot -19.5176 18.9578
ltoes -6.95411
1193
root -15.835 17.5538 -2.21223 4.78978 20.4867 359.687
lowerback 4.31933 2.86957 -3.24659
upperback -2.40007 3.60547 -0.499115
thorax -5.07874 1.88794 0.981575
lowerneck -24.1692 7.6837 7.06075
upperneck 25.5227 9.4705 -3.74363
head 13.1062 4.36751 -0.861278
rclavicle 4.20554e-014 7.95139e-016
rhumerus -36.9358 -20.045 -70.7333
rradius 22.0351
rwrist 9.71406
rhand -16.5835 20.187
rfingers 7.12502
rthumb 9.63725 -9.5726
lclavicle 4.20554e-014 7.95139e-016
lhumerus -34.1587 -9.73711 89.5984
lradius 21.9115
lwrist 18.1183
lhand -21.7405 56.6249
lfingers 7.12502
lthumb 4.65936 -633.446
rfemur -12.5091 -7.71676 16.2911
rtibia 32.4011
rfoot -15.3581 -16.3247
rtoes -4.31767
lfemur -14.8893 0.345547 -22.3264
ltibia 25.1546
lfoot -19.171 17.6285
ltoes -7.94437
1194
root -15.766 17.5448 -2.15998 4.71049 22.1063 359.51
lowerback 4.61646 2.6433 -3.65948
upperback -2.20594 3.26725 -0.483415
thorax -5.05523 1.73118 1.25057
lowerneck -24.3095 7.52047 6.93894
upperneck 25.136 9.25243 -3.77348
head 12.9573 4.25524 -0.895763
rclavicle 5.38955e-014 -2.26615e-014
rhumerus -36.4112 -19.1703 -71.8357
rradius 22.9298
rwrist 9.80448
rhand -17.5352 20.23
rfingers 7.12502
rthumb 8.7189 -9.56997
lclavicle 5.38955e-014 -2.26615e-014
lhumerus -33.4594 -9.95086 89.1924
lradius 21.7082
lwrist 17.4378
lhand -21.4098 56.6797
lfingers 7.12502
lthumb 4.97871 -633.399
rfemur -14.0547 -7.85158 16.6651
rtibia 34.5381
rfoot -15.8798 -13.0875
rtoes -5.81062
lfemur -14.7307 -0.465743 -22.3264
ltibia 25.0921
lfoot -19.1566 17.0894
ltoes -8.53085
1195
root -15.6916 17.5471 -2.10253 4.56712 23.7818 359.041
lowerback 4.81869 2.34793 -3.69234
upperback -2.03061 2.86932 -0.378247
thorax -4.97295 1.53334 1.41231
lowerneck -24.3804 7.38026 6.8371
upperneck 24.7469 9.0776 -3.83933
head 12.801 4.16033 -0.940387
rclavicle 4.40557e-014 1.07344e-014
rhumerus -35.8081 -18.2568 -72.9087
rradius 23.6303
rwrist 10.1826
rhand -18.4913 20.5847
rfingers 7.12502
rthumb 7.79616 -9.25161
lclavicle 4.40557e-014 1.07344e-014
lhumerus -32.7184 -10.0049 88.8081
lradius 21.5137
lwrist 16.8958
lhand -21.4199 56.406
lfingers 7.12502
lthumb 4.96891 -633.672
rfemur -15.5052 -7.80703 17.4183
rtibia 36.2262
rfoot -16.2815 -11.3317
rtoes -5.12281
lfemur -14.6708 -1.11025 -22.0544
ltibia 25.1719
lfoot -19.1431 16.4904
ltoes -9.60904
1196
root -15.6107 17.5553 -2.04635 4.24401 25.7103 358.525
lowerback 5.15796 1.97668 -3.48611
upperback -1.829 2.38203 -0.258359
thorax -4.92375 1.28386 1.46122
lowerneck -24.4447 7.22977 6.58747
upperneck 24.4887 8.90307 -3.73275
head 12.6792 4.07499 -0.894319
rclavicle -4.89507e-014 -7.55382e-015
rhumerus -35.4511 -15.5943 -74.6325
rradius 24.9094
rwrist 8.58283
rhand -19.2913 20.8982
rfingers 7.12502
rthumb 7.02394 -8.96525
lclavicle -4.89507e-014 -7.55382e-015
lhumerus -31.9806 -10.0037 88.5007
lradius 21.4254
lwrist 16.369
lhand -21.3869 56.4411
lfingers 7.12502
lthumb 5.00079 -633.638
rfemur -16.6513 -7.76943 18.2202
rtibia 37.4601
rfoot -16.3822 -10.9724
rtoes -3.85365
lfemur -14.4524 -2.10661 -21.7486
ltibia 25.2326
lfoot -19.192 15.9864
ltoes -10.3072
1197
root -15.5281 17.5674 -1.99014 3.97934 27.8315 358.117
lowerback 5.50429 1.58304 -3.25125
upperback -1.6601 1.86521 -0.192754
thorax -4.90966 1.01923 1.44215
lowerneck -24.5384 7.05068 6.3434
upperneck 24.3885 8.70422 -3.65358
head 12.628 3.97434 -0.861756
rclavicle -1.74434e-014 -8.74653e-015
rhumerus -35.1828 -14.6749 -75.5066
rradius 25.7391
rwrist 8.55819
rhand -19.8701 21.2381
rfingers 7.12502
rthumb 6.46527 -8.64327
lclavicle -1.74434e-014 -8.74653e-015
lhumerus -31.2647 -10.0602 88.2491
lradius 21.4395
lwrist 15.6964
lhand -21.1147 56.5962
lfingers 7.12502
lthumb 5.26363 -633.489
rfemur -17.7125 -7.64542 18.9235
rtibia 38.2219
rfoot -16.2075 -11.5599
rtoes -2.40376
lfemur -14.2533 -3.38717 -21.5396
ltibia 25.2117
lfoot -19.2644 15.3866
ltoes -10.6805
